<?xml version="1.0" encoding="iso-8859-1"?>
<!-- Uploaded to: SVG Repo, www.svgrepo.com, Generator: SVG Repo Mixer Tools -->
<!DOCTYPE svg PUBLIC "-//W3C//DTD SVG 1.1//EN" "http://www.w3.org/Graphics/SVG/1.1/DTD/svg11.dtd">
<svg fill="#000000" version="1.1" id="Capa_1" xmlns="http://www.w3.org/2000/svg" xmlns:xlink="http://www.w3.org/1999/xlink" 
	 width="800px" height="800px" viewBox="0 0 261.945 261.945"
	 xml:space="preserve">
<g>
	<path d="M78.979,145.951c-0.869-0.537-1.937-0.667-2.912-0.355c-0.974,0.312-1.766,1.037-2.161,1.981l-10.513,25.104
		c-0.719,1.726,0.038,3.71,1.72,4.515l8.723,4.179c0.361,0.629,0.866,1.188,1.583,1.498l0.799,0.35
		c-11.293,35.125-13.025,73.405-13.092,75.071c-0.042,0.952,0.312,1.886,0.971,2.57c0.659,0.691,1.574,1.081,2.53,1.081h38.547
		c1.937,0,3.504-1.57,3.504-3.504c0-15.52,3.532-32.086,10.499-49.262c0.743-1.842,1.506-3.621,2.267-5.328
		c0.596-1.349,1.201-2.652,1.787-3.895c2.986-6.28,5.814-11.259,7.741-14.441c0.183,0.301,0.387,0.65,0.585,0.985l6.449,12.009
		c0.76,1.56,1.533,3.192,2.307,4.921c0.667,1.488,1.341,3.042,2.005,4.65c7.262,17.538,10.951,34.481,10.951,50.36
		c0,1.934,1.563,3.504,3.504,3.504h38.548c0.951,0,1.864-0.39,2.528-1.081c0.657-0.685,1.014-1.615,0.973-2.57
		c-0.076-1.711-1.855-41.243-13.655-76.813l8.936-4.284c1.684-0.805,2.44-2.793,1.722-4.515l-10.514-25.104
		c-0.396-0.944-1.188-1.67-2.162-1.981c-0.985-0.314-2.043-0.185-2.916,0.355l-8.836,5.469c-1.731-2.686-3.549-5.144-5.414-7.408
		c0.473-0.616,0.773-1.342,0.767-2.129l-0.876-77.093c-0.003-0.416-0.086-0.83-0.236-1.222L141.982,2.243
		c-0.606-1.578-2.27-2.491-3.905-2.184c-1.663,0.308-2.864,1.756-2.864,3.445V117.59c-2.045-0.839-4.182-1.417-6.379-1.711V3.507
		c0-1.689-1.205-3.137-2.862-3.444c-1.634-0.308-3.297,0.605-3.908,2.183L98.409,63.571c-0.15,0.388-0.23,0.802-0.234,1.222
		l-0.876,77.092c-0.003,0.172,0.01,0.339,0.031,0.507c-2.616,2.991-5.133,6.424-7.515,10.253L78.979,145.951z M78.782,154.072
		l5.383,3.326c0.214,0.596,0.525,1.16,1.059,1.581l33.396,26.652l-3.676,6.844l-31.434-13.719c-0.332-0.459-0.739-0.873-1.282-1.133
		l-11.084-5.308L78.782,154.072z M112.676,206.554c-6.788,16.73-10.465,32.989-10.954,48.386H70.344
		c0.715-10.352,3.48-40.933,12.342-68.892l32.415,14.145c0.091,0.041,0.193,0.027,0.284,0.058c-0.116,0.261-0.23,0.5-0.351,0.76
		C114.246,202.783,113.45,204.638,112.676,206.554z M191.6,254.94h-31.378c-0.499-15.772-4.332-32.418-11.43-49.539
		c-0.691-1.673-1.389-3.288-2.087-4.843c-0.284-0.629-0.562-1.193-0.843-1.807l32.867-14.342
		C188,212.783,190.871,244.379,191.6,254.94z M180.43,154.072l7.639,18.247l-8.654,4.147l-36.61,15.979
		c-1.328-2.607-2.563-4.897-3.683-6.865l33.157-26.463L180.43,154.072z M142.215,22.333l16.652,43.172l0.828,72.921h-0.294h-8.035
		c-0.359-2.611-1.116-5.164-2.272-7.615c-0.814-1.735-1.852-3.36-3.107-4.991c-0.141-0.185-0.247-0.368-0.397-0.553
		c-0.007-0.012-0.01-0.029-0.021-0.04c-0.003-0.007-0.014-0.007-0.017-0.014c-0.007-0.01-0.014-0.021-0.021-0.027
		c-0.004-0.003-0.007-0.007-0.011-0.012c-0.003-0.003-0.01-0.01-0.014-0.014c-0.603-0.719-1.238-1.398-1.899-2.036
		c-0.058-0.063-0.287-0.298-0.353-0.361c-0.003-0.003-0.01-0.007-0.014-0.01c-0.007-0.007-0.023-0.024-0.03-0.031
		c-0.004-0.003-0.007-0.003-0.011-0.007c-0.325-0.298-0.653-0.595-0.988-0.883V22.333H142.215z M105.023,144.405
		c1.002-1.003,1.304-2.513,0.759-3.823c-0.297-0.712-0.809-1.293-1.451-1.673l0.835-73.407l16.652-43.172v96.816
		c0,1.934,1.565,3.504,3.504,3.504c4.086,0,8.001,1.281,11.33,3.715c0.641,0.462,1.236,0.966,1.794,1.492
		c0.027,0.033,0.099,0.106,0.164,0.171c0.048,0.049,0.093,0.096,0.113,0.116c0,0,0.003,0,0.003,0.003
		c0.496,0.481,0.969,0.982,1.502,1.629c1.007,1.237,1.855,2.587,2.526,4.009c1.225,2.604,1.841,5.339,1.841,8.138
		c0,1.934,1.567,3.504,3.504,3.504h9.825c2.69,2.841,5.267,6.215,7.703,10.021l-30.136,24.051c-0.725-1.14-1.177-1.8-1.242-1.896
		c-0.653-0.951-1.729-1.513-2.883-1.513h-0.789c-1.149,0-2.229,0.567-2.885,1.513c-0.087,0.133-1.11,1.636-2.655,4.182
		l-30.105-24.027C98.091,152.47,101.472,147.953,105.023,144.405z"/>
	<path d="M130.975,153.316c6.281,0,11.391-5.109,11.391-11.389c0-6.28-5.109-11.39-11.391-11.39c-6.279,0-11.389,5.109-11.389,11.39
		C119.586,148.207,124.695,153.316,130.975,153.316z M130.975,137.546c2.414,0,4.382,1.965,4.382,4.381
		c0,2.412-1.968,4.38-4.382,4.38s-4.38-1.968-4.38-4.38C126.594,139.511,128.557,137.546,130.975,137.546z"/>
</g>
</svg>